<svg width="199" height="152" viewBox="0 0 199 152" fill="none" xmlns="http://www.w3.org/2000/svg">
<path d="M196.94 45.0461L197.133 78.4808" stroke="black" stroke-width="2.5"/>
<path d="M196.94 84.3443H197.133" stroke="black" stroke-width="2.5"/>
<path d="M196.172 78.356V84.3443" stroke="black" stroke-width="2.5"/>
<path d="M196.94 84.3443V117.779" stroke="black" stroke-width="2.5"/>
<path d="M195.787 117.654V124.142" stroke="black" stroke-width="2.5"/>
<path d="M196.748 124.017H197.133" stroke="black" stroke-width="2.5"/>
<path d="M196.94 124.017V148.469C196.94 148.927 196.364 149.841 194.058 149.841" stroke="black" stroke-width="2.5"/>
<path d="M73.7492 3.50223H125.255M65.1008 5.49833H133.903" stroke="black" stroke-width="2.5"/>
<path d="M1.4873 22.4652C2.5123 18.7641 16.67 10.6383 65.1009 7.74394V3.50223H73.7493V1.50613H125.255V3.46258H133.904V7.74394C153.378 8.74199 193.251 13.0835 196.941 22.4652" stroke="black" stroke-width="2.5"/>
<path d="M194.058 149.841H4.17791C3.28104 149.883 1.4873 149.567 1.4873 147.97V124.017H2.44824V117.654H1.4873V84.3443H2.44824V78.356H1.4873V45.0461H2.44824V38.6835H1.4873V22.4652" stroke="black" stroke-width="2.5"/>
<path d="M2.44824 124.017H196.748" stroke="black" stroke-width="2.5"/>
<path d="M2.64038 117.654H196.941" stroke="black" stroke-width="2.5"/>
<path d="M2.64038 84.3443H196.941" stroke="black" stroke-width="2.5"/>
<path d="M2.64038 78.356H196.941" stroke="black" stroke-width="2.5"/>
<path d="M2.64038 45.0461H196.941" stroke="black" stroke-width="2.5"/>
<path d="M196.94 45.0461H197.133" stroke="black" stroke-width="2.5"/>
<path d="M2.64038 38.6835H196.941" stroke="black" stroke-width="2.5"/>
<path d="M195.787 38.6835V45.0461" stroke="black" stroke-width="2.5"/>
<path d="M196.94 22.4652V38.8083" stroke="black" stroke-width="2.5"/>
</svg>
