<?xml version="1.0" ?><!DOCTYPE svg  PUBLIC '-//W3C//DTD SVG 1.1//EN'  'http://www.w3.org/Graphics/SVG/1.1/DTD/svg11.dtd'><svg enable-background="new -223.355 -11.531 49.999 40.002" height="40.002px" id="Layer_1" version="1.1" viewBox="-223.355 -11.531 49.999 40.002" width="49.999px" xml:space="preserve" xmlns="http://www.w3.org/2000/svg" xmlns:xlink="http://www.w3.org/1999/xlink"><g><path d="M-180.566,11.384c-0.001-0.012-3.32-0.571-6.539,1.71c1.312-2.281,3.094-3.812,6.123-4.122   C-182.391,3.805-187.097,0-192.713,0c-4.432,0-8.305,2.373-10.435,5.913c2.729,0.119,5.606,2.18,7.405,4.506   c-1.703-1.318-3.835-2.111-6.156-2.111c-0.84,0-1.652,0.115-2.432,0.31c-0.002-0.022-0.009-0.042-0.011-0.065   c-0.008,0.024-0.018,0.047-0.025,0.072c-4.372,1.103-7.614,5.05-7.614,9.765c0,5.566,4.514,10.081,10.082,10.081h19.939   c4.752,0,8.604-3.853,8.604-8.604C-173.355,15.588-176.479,12.05-180.566,11.384z" fill="#363636"/><g><path d="M-210.952,8.614c-0.257-0.667-0.403-1.389-0.403-2.146c0-3.308,2.692-6,6-6    c0.756,0,1.478,0.146,2.145,0.403c1.123-1.012,2.382-1.844,3.743-2.474c-1.653-1.208-3.684-1.93-5.887-1.93    c-5.522,0-10,4.478-10,10c0,2.045,0.617,3.945,1.67,5.529C-212.971,10.726-212.045,9.583-210.952,8.614z" fill="#363636"/><path d="M-203.355-8.531c0,1.65-0.9,3-2,3s-2-1.35-2-3c0-1.65,0.9-3,2-3S-203.355-10.181-203.355-8.531z" fill="#363636"/><path d="M-220.355,8.469c-1.65,0-3-0.9-3-2c0-1.1,1.35-2,3-2s3,0.9,3,2    C-217.355,7.569-218.706,8.469-220.355,8.469z" fill="#363636"/><path d="M-193.094-3c0.958-1.131,1.185-2.54,0.466-3.259c-0.778-0.778-2.369-0.46-3.535,0.707    c-0.98,0.98-1.352,2.255-0.987,3.101C-195.85-2.809-194.49-3-193.094-3z" fill="#363636"/><path d="M-215.355,18.389c0-1.329,0.201-2.619,0.575-3.839c-0.8-0.078-1.795,0.311-2.596,1.111    c-1.167,1.167-1.485,2.757-0.707,3.535c0.616,0.617,1.742,0.535,2.763-0.102C-215.333,18.859-215.355,18.627-215.355,18.389z" fill="#363636"/><path d="M-214.548-5.552c1.167,1.167,1.485,2.757,0.707,3.535c-0.778,0.778-2.369,0.459-3.535-0.707    c-1.167-1.167-1.485-2.757-0.707-3.535C-217.305-7.037-215.714-6.719-214.548-5.552z" fill="#363636"/></g></g></svg>