<?xml version="1.0" ?><svg viewBox="0 0 24 24" xmlns="http://www.w3.org/2000/svg"><defs><style>.cls-1,.cls-2{fill:none;}.cls-2{stroke:#000;stroke-linecap:round;stroke-linejoin:round;}</style></defs><g data-name="Layer 2" id="Layer_2"><g id="Workspace"><rect class="cls-1" height="24" width="24"/><path class="cls-2" d="M16,14a3,3,0,0,0,0-6H16A3.48,3.48,0,0,0,9,8.19,2.94,2.94,0,0,0,8,8a3,3,0,0,0,0,6"/><line class="cls-2" x1="12" x2="12" y1="11" y2="14"/><line class="cls-2" x1="10.7" x2="13.3" y1="13.25" y2="11.75"/><line class="cls-2" x1="13.3" x2="10.7" y1="13.25" y2="11.75"/><line class="cls-2" x1="9" x2="9" y1="15.5" y2="18.5"/><line class="cls-2" x1="7.7" x2="10.3" y1="17.75" y2="16.25"/><line class="cls-2" x1="10.3" x2="7.7" y1="17.75" y2="16.25"/><line class="cls-2" x1="15" x2="15" y1="15.5" y2="18.5"/><line class="cls-2" x1="16.3" x2="13.7" y1="17.75" y2="16.25"/><line class="cls-2" x1="13.7" x2="16.3" y1="17.75" y2="16.25"/></g></g></svg>