<?xml version="1.0" ?><!DOCTYPE svg  PUBLIC '-//W3C//DTD SVG 1.1//EN'  'http://www.w3.org/Graphics/SVG/1.1/DTD/svg11.dtd'><svg height="42px" style="fill-rule:evenodd;clip-rule:evenodd;stroke-linejoin:round;stroke-miterlimit:2;" version="1.1" width="42px" xml:space="preserve" xmlns="http://www.w3.org/2000/svg" xmlns:serif="http://www.serif.com/" xmlns:xlink="http://www.w3.org/1999/xlink"><path d="M20,10.232l0,26.768c0,0.552 0.448,1 1,1c0.552,-0 1,-0.448 1,-1l0,-26.768c0.598,-0.346 1,-0.992 1,-1.732c0,-1.104 -0.896,-2 -2,-2c-1.104,0 -2,0.896 -2,2c0,0.74 0.402,1.386 1,1.732Z"/><path d="M28,11l0,-2l6,3l-6,3l0,-2l-20,0c-0.552,0 -1,-0.448 -1,-1c-0,-0.552 0.448,-1 1,-1l20,-0Z"/><path d="M14,7c0,-0.552 -0.448,-1 -1,-1l-6,0c-0.552,0 -1,0.448 -1,1l0,10c0,0.552 0.448,1 1,1l6,0c0.552,0 1,-0.448 1,-1l0,-10Z"/></svg>