<?xml version="1.0" ?><svg viewBox="0 0 24 24" xmlns="http://www.w3.org/2000/svg"><defs><style>.cls-1,.cls-2{fill:none;}.cls-2{stroke:#000;stroke-linecap:round;stroke-linejoin:round;}</style></defs><g data-name="Layer 2" id="Layer_2"><g id="Workspace"><rect class="cls-1" height="24" width="24"/><line class="cls-2" x1="10" x2="10" y1="5" y2="4"/><line class="cls-2" x1="6.79" x2="6.14" y1="6.17" y2="5.4"/><line class="cls-2" x1="5.08" x2="4.09" y1="9.13" y2="8.96"/><line class="cls-2" x1="5.67" x2="4.8" y1="12.5" y2="13"/><line class="cls-2" x1="13.21" x2="13.86" y1="6.17" y2="5.4"/><path class="cls-2" d="M7.46,12.41A3.5,3.5,0,1,1,13,8.19l.08.12"/><path class="cls-2" d="M11,16a8.1,8.1,0,0,1,1,2.89A1.06,1.06,0,0,1,11,20a1.06,1.06,0,0,1-1-1.11A8.1,8.1,0,0,1,11,16Z"/><path class="cls-2" d="M17,15a8.1,8.1,0,0,1,1,2.89,1,1,0,1,1-2,0A8.1,8.1,0,0,1,17,15Z"/><path class="cls-2" d="M17.86,17H18a3,3,0,0,0,0-6H18a3.48,3.48,0,0,0-6.92.18A3.19,3.19,0,0,0,10,11a3,3,0,0,0,0,6h.51"/><line class="cls-2" x1="11.49" x2="16.14" y1="17" y2="17"/></g></g></svg>