<?xml version="1.0" ?><svg viewBox="0 0 24 24" xmlns="http://www.w3.org/2000/svg"><defs><style>.cls-1,.cls-2{fill:none;}.cls-2{stroke:#000;stroke-linecap:round;stroke-linejoin:round;}</style></defs><g data-name="Layer 2" id="Layer_2"><g id="Workspace"><rect class="cls-1" height="24" width="24"/><line class="cls-2" x1="10" x2="10" y1="5" y2="4"/><line class="cls-2" x1="6.79" x2="6.14" y1="6.17" y2="5.4"/><line class="cls-2" x1="5.08" x2="4.09" y1="9.13" y2="8.96"/><line class="cls-2" x1="5.67" x2="4.8" y1="12.5" y2="13"/><line class="cls-2" x1="13.21" x2="13.86" y1="6.17" y2="5.4"/><path class="cls-2" d="M7.46,12.41A3.5,3.5,0,1,1,13,8.19l.08.12"/><path class="cls-2" d="M11,17H10a3,3,0,0,1,0-6,2.94,2.94,0,0,1,1,.19A3.48,3.48,0,0,1,18,11H18a3,3,0,0,1,0,6H16"/><polygon class="cls-2" points="13 13 16 13 15 15 18 15 12 21 14 17 11 17 13 13"/></g></g></svg>